<mxfile host="app.diagrams.net" modified="2021-09-07T14:49:12.335Z" agent="5.0 (Windows NT 10.0; Win64; x64) AppleWebKit/537.36 (KHTML, like Gecko) Chrome/92.0.4515.159 Safari/537.36" etag="Pd9OHKXrmOfCtsVIuZkp" version="15.1.0" type="github">
  <diagram id="C5RBs43oDa-KdzZeNtuy" name="Page-1">
    <mxGraphModel dx="958" dy="567" grid="1" gridSize="10" guides="1" tooltips="1" connect="1" arrows="1" fold="1" page="1" pageScale="1" pageWidth="827" pageHeight="1169" math="0" shadow="0">
      <root>
        <mxCell id="WIyWlLk6GJQsqaUBKTNV-0" />
        <mxCell id="WIyWlLk6GJQsqaUBKTNV-1" parent="WIyWlLk6GJQsqaUBKTNV-0" />
        <mxCell id="6zjBVDcBIrsnw04U2uf7-14" style="edgeStyle=orthogonalEdgeStyle;rounded=0;orthogonalLoop=1;jettySize=auto;html=1;exitX=0.5;exitY=1;exitDx=0;exitDy=0;entryX=0.5;entryY=0;entryDx=0;entryDy=0;fontSize=13;" edge="1" parent="WIyWlLk6GJQsqaUBKTNV-1" source="WIyWlLk6GJQsqaUBKTNV-3" target="6zjBVDcBIrsnw04U2uf7-11">
          <mxGeometry relative="1" as="geometry" />
        </mxCell>
        <mxCell id="WIyWlLk6GJQsqaUBKTNV-3" value="&lt;font style=&quot;vertical-align: inherit&quot;&gt;&lt;font style=&quot;vertical-align: inherit&quot;&gt;회원접근&lt;/font&gt;&lt;/font&gt;" style="rounded=1;whiteSpace=wrap;html=1;fontSize=12;glass=0;strokeWidth=1;shadow=0;" parent="WIyWlLk6GJQsqaUBKTNV-1" vertex="1">
          <mxGeometry x="137" y="78" width="120" height="40" as="geometry" />
        </mxCell>
        <mxCell id="6zjBVDcBIrsnw04U2uf7-18" style="edgeStyle=orthogonalEdgeStyle;rounded=0;orthogonalLoop=1;jettySize=auto;html=1;exitX=0.5;exitY=1;exitDx=0;exitDy=0;entryX=0.5;entryY=0;entryDx=0;entryDy=0;fontSize=14;" edge="1" parent="WIyWlLk6GJQsqaUBKTNV-1" source="WIyWlLk6GJQsqaUBKTNV-6" target="6zjBVDcBIrsnw04U2uf7-15">
          <mxGeometry relative="1" as="geometry" />
        </mxCell>
        <mxCell id="6zjBVDcBIrsnw04U2uf7-38" style="edgeStyle=orthogonalEdgeStyle;rounded=0;orthogonalLoop=1;jettySize=auto;html=1;exitX=1;exitY=0.5;exitDx=0;exitDy=0;entryX=0;entryY=0.5;entryDx=0;entryDy=0;fontSize=12;" edge="1" parent="WIyWlLk6GJQsqaUBKTNV-1" source="WIyWlLk6GJQsqaUBKTNV-6" target="WIyWlLk6GJQsqaUBKTNV-7">
          <mxGeometry relative="1" as="geometry" />
        </mxCell>
        <mxCell id="WIyWlLk6GJQsqaUBKTNV-6" value="파티원 수&amp;lt;=등록 인원" style="rhombus;whiteSpace=wrap;html=1;shadow=0;fontFamily=Helvetica;fontSize=12;align=center;strokeWidth=1;spacing=6;spacingTop=-4;" parent="WIyWlLk6GJQsqaUBKTNV-1" vertex="1">
          <mxGeometry x="117" y="480" width="150" height="62" as="geometry" />
        </mxCell>
        <mxCell id="6zjBVDcBIrsnw04U2uf7-53" style="edgeStyle=orthogonalEdgeStyle;rounded=0;orthogonalLoop=1;jettySize=auto;html=1;exitX=0.5;exitY=1;exitDx=0;exitDy=0;entryX=0.5;entryY=0;entryDx=0;entryDy=0;fontSize=13;" edge="1" parent="WIyWlLk6GJQsqaUBKTNV-1" source="WIyWlLk6GJQsqaUBKTNV-7" target="6zjBVDcBIrsnw04U2uf7-52">
          <mxGeometry relative="1" as="geometry" />
        </mxCell>
        <mxCell id="WIyWlLk6GJQsqaUBKTNV-7" value="파티 참가 성공" style="rounded=1;whiteSpace=wrap;html=1;fontSize=12;glass=0;strokeWidth=1;shadow=0;" parent="WIyWlLk6GJQsqaUBKTNV-1" vertex="1">
          <mxGeometry x="370" y="491" width="120" height="40" as="geometry" />
        </mxCell>
        <mxCell id="6zjBVDcBIrsnw04U2uf7-25" style="edgeStyle=orthogonalEdgeStyle;rounded=0;orthogonalLoop=1;jettySize=auto;html=1;exitX=0.5;exitY=1;exitDx=0;exitDy=0;entryX=0.5;entryY=0;entryDx=0;entryDy=0;fontSize=14;" edge="1" parent="WIyWlLk6GJQsqaUBKTNV-1" source="6zjBVDcBIrsnw04U2uf7-11" target="6zjBVDcBIrsnw04U2uf7-24">
          <mxGeometry relative="1" as="geometry" />
        </mxCell>
        <mxCell id="6zjBVDcBIrsnw04U2uf7-11" value="&#xa;&#xa;&lt;span style=&quot;color: rgb(0, 0, 0); font-family: helvetica; font-size: 12px; font-style: normal; font-weight: 400; letter-spacing: normal; text-align: center; text-indent: 0px; text-transform: none; word-spacing: 0px; background-color: rgb(248, 249, 250); display: inline; float: none;&quot;&gt;파티원 모집&lt;/span&gt;&lt;br style=&quot;color: rgb(0, 0, 0); font-family: helvetica; font-size: 12px; font-style: normal; font-weight: 400; letter-spacing: normal; text-align: center; text-indent: 0px; text-transform: none; word-spacing: 0px; background-color: rgb(248, 249, 250);&quot;&gt;&lt;span style=&quot;color: rgb(0, 0, 0); font-family: helvetica; font-size: 12px; font-style: normal; font-weight: 400; letter-spacing: normal; text-align: center; text-indent: 0px; text-transform: none; word-spacing: 0px; background-color: rgb(248, 249, 250); display: inline; float: none;&quot;&gt;게시판 생성&lt;/span&gt;&#xa;&#xa;" style="shape=parallelogram;perimeter=parallelogramPerimeter;whiteSpace=wrap;html=1;fixedSize=1;fontSize=13;" vertex="1" parent="WIyWlLk6GJQsqaUBKTNV-1">
          <mxGeometry x="130" y="157" width="125" height="40" as="geometry" />
        </mxCell>
        <mxCell id="6zjBVDcBIrsnw04U2uf7-20" style="edgeStyle=orthogonalEdgeStyle;rounded=0;orthogonalLoop=1;jettySize=auto;html=1;exitX=0.5;exitY=1;exitDx=0;exitDy=0;entryX=0.5;entryY=0;entryDx=0;entryDy=0;fontSize=14;" edge="1" parent="WIyWlLk6GJQsqaUBKTNV-1" source="6zjBVDcBIrsnw04U2uf7-15" target="6zjBVDcBIrsnw04U2uf7-19">
          <mxGeometry relative="1" as="geometry" />
        </mxCell>
        <mxCell id="6zjBVDcBIrsnw04U2uf7-62" style="edgeStyle=orthogonalEdgeStyle;rounded=0;orthogonalLoop=1;jettySize=auto;html=1;exitX=1;exitY=0.5;exitDx=0;exitDy=0;entryX=0;entryY=0.5;entryDx=0;entryDy=0;fontSize=13;" edge="1" parent="WIyWlLk6GJQsqaUBKTNV-1" source="6zjBVDcBIrsnw04U2uf7-15" target="6zjBVDcBIrsnw04U2uf7-61">
          <mxGeometry relative="1" as="geometry" />
        </mxCell>
        <mxCell id="6zjBVDcBIrsnw04U2uf7-15" value="파티 참가 실패" style="rounded=1;whiteSpace=wrap;html=1;fontSize=12;glass=0;strokeWidth=1;shadow=0;" vertex="1" parent="WIyWlLk6GJQsqaUBKTNV-1">
          <mxGeometry x="132" y="612" width="120" height="40" as="geometry" />
        </mxCell>
        <mxCell id="6zjBVDcBIrsnw04U2uf7-19" value="파티원 모집 마감" style="rounded=1;whiteSpace=wrap;html=1;fontSize=12;glass=0;strokeWidth=1;shadow=0;" vertex="1" parent="WIyWlLk6GJQsqaUBKTNV-1">
          <mxGeometry x="132" y="726" width="120" height="40" as="geometry" />
        </mxCell>
        <mxCell id="6zjBVDcBIrsnw04U2uf7-27" style="edgeStyle=orthogonalEdgeStyle;rounded=0;orthogonalLoop=1;jettySize=auto;html=1;exitX=0;exitY=0.5;exitDx=0;exitDy=0;entryX=0;entryY=0.75;entryDx=0;entryDy=0;fontSize=14;" edge="1" parent="WIyWlLk6GJQsqaUBKTNV-1" source="6zjBVDcBIrsnw04U2uf7-24" target="6zjBVDcBIrsnw04U2uf7-19">
          <mxGeometry relative="1" as="geometry">
            <Array as="points">
              <mxPoint x="50" y="266" />
              <mxPoint x="50" y="756" />
            </Array>
          </mxGeometry>
        </mxCell>
        <mxCell id="6zjBVDcBIrsnw04U2uf7-33" style="edgeStyle=orthogonalEdgeStyle;rounded=0;orthogonalLoop=1;jettySize=auto;html=1;exitX=1;exitY=0.5;exitDx=0;exitDy=0;entryX=0;entryY=0.5;entryDx=0;entryDy=0;fontSize=12;" edge="1" parent="WIyWlLk6GJQsqaUBKTNV-1" source="6zjBVDcBIrsnw04U2uf7-24" target="6zjBVDcBIrsnw04U2uf7-32">
          <mxGeometry relative="1" as="geometry" />
        </mxCell>
        <mxCell id="6zjBVDcBIrsnw04U2uf7-48" style="edgeStyle=orthogonalEdgeStyle;rounded=0;orthogonalLoop=1;jettySize=auto;html=1;exitX=0.5;exitY=1;exitDx=0;exitDy=0;entryX=0.5;entryY=0;entryDx=0;entryDy=0;fontSize=13;" edge="1" parent="WIyWlLk6GJQsqaUBKTNV-1" source="6zjBVDcBIrsnw04U2uf7-24" target="6zjBVDcBIrsnw04U2uf7-47">
          <mxGeometry relative="1" as="geometry" />
        </mxCell>
        <mxCell id="6zjBVDcBIrsnw04U2uf7-24" value="파티원 모집&lt;br&gt;게시판 유효" style="rhombus;whiteSpace=wrap;html=1;shadow=0;fontFamily=Helvetica;fontSize=12;align=center;strokeWidth=1;spacing=6;spacingTop=-4;" vertex="1" parent="WIyWlLk6GJQsqaUBKTNV-1">
          <mxGeometry x="108.5" y="241" width="167" height="50" as="geometry" />
        </mxCell>
        <mxCell id="6zjBVDcBIrsnw04U2uf7-29" value="게시판 유효X" style="text;html=1;strokeColor=none;fillColor=none;align=center;verticalAlign=middle;whiteSpace=wrap;rounded=0;fontSize=12;fontStyle=1" vertex="1" parent="WIyWlLk6GJQsqaUBKTNV-1">
          <mxGeometry x="60" y="232" width="47.5" height="20" as="geometry" />
        </mxCell>
        <mxCell id="6zjBVDcBIrsnw04U2uf7-31" value="게시판 유효O" style="text;html=1;strokeColor=none;fillColor=none;align=center;verticalAlign=middle;whiteSpace=wrap;rounded=0;fontSize=12;fontStyle=1" vertex="1" parent="WIyWlLk6GJQsqaUBKTNV-1">
          <mxGeometry x="197.5" y="310" width="48.5" height="20" as="geometry" />
        </mxCell>
        <mxCell id="6zjBVDcBIrsnw04U2uf7-36" style="edgeStyle=orthogonalEdgeStyle;rounded=0;orthogonalLoop=1;jettySize=auto;html=1;exitX=0.5;exitY=0;exitDx=0;exitDy=0;entryX=0;entryY=0.5;entryDx=0;entryDy=0;fontSize=12;" edge="1" parent="WIyWlLk6GJQsqaUBKTNV-1" source="6zjBVDcBIrsnw04U2uf7-32" target="6zjBVDcBIrsnw04U2uf7-34">
          <mxGeometry relative="1" as="geometry" />
        </mxCell>
        <mxCell id="6zjBVDcBIrsnw04U2uf7-37" style="edgeStyle=orthogonalEdgeStyle;rounded=0;orthogonalLoop=1;jettySize=auto;html=1;exitX=0.5;exitY=1;exitDx=0;exitDy=0;entryX=0;entryY=0.75;entryDx=0;entryDy=0;fontSize=12;" edge="1" parent="WIyWlLk6GJQsqaUBKTNV-1" source="6zjBVDcBIrsnw04U2uf7-32" target="6zjBVDcBIrsnw04U2uf7-35">
          <mxGeometry relative="1" as="geometry" />
        </mxCell>
        <mxCell id="6zjBVDcBIrsnw04U2uf7-32" value="파티원 모집&lt;br&gt;게시판 수정" style="rhombus;whiteSpace=wrap;html=1;shadow=0;fontFamily=Helvetica;fontSize=12;align=center;strokeWidth=1;spacing=6;spacingTop=-4;" vertex="1" parent="WIyWlLk6GJQsqaUBKTNV-1">
          <mxGeometry x="430" y="241" width="167" height="50" as="geometry" />
        </mxCell>
        <mxCell id="6zjBVDcBIrsnw04U2uf7-34" value="게시판 삭제" style="rounded=1;whiteSpace=wrap;html=1;fontSize=12;glass=0;strokeWidth=1;shadow=0;" vertex="1" parent="WIyWlLk6GJQsqaUBKTNV-1">
          <mxGeometry x="690" y="180" width="120" height="40" as="geometry" />
        </mxCell>
        <mxCell id="6zjBVDcBIrsnw04U2uf7-35" value="게시판 수정 완료" style="rounded=1;whiteSpace=wrap;html=1;fontSize=12;glass=0;strokeWidth=1;shadow=0;" vertex="1" parent="WIyWlLk6GJQsqaUBKTNV-1">
          <mxGeometry x="690" y="318" width="120" height="40" as="geometry" />
        </mxCell>
        <mxCell id="6zjBVDcBIrsnw04U2uf7-39" value="파티원 추가" style="text;html=1;strokeColor=none;fillColor=none;align=center;verticalAlign=middle;whiteSpace=wrap;rounded=0;fontSize=13;fontStyle=1" vertex="1" parent="WIyWlLk6GJQsqaUBKTNV-1">
          <mxGeometry x="270" y="480" width="80" height="20" as="geometry" />
        </mxCell>
        <mxCell id="6zjBVDcBIrsnw04U2uf7-40" value="파티원 인원 초과" style="text;html=1;strokeColor=none;fillColor=none;align=center;verticalAlign=middle;whiteSpace=wrap;rounded=0;fontSize=13;fontStyle=1" vertex="1" parent="WIyWlLk6GJQsqaUBKTNV-1">
          <mxGeometry x="220" y="572" width="80" height="20" as="geometry" />
        </mxCell>
        <mxCell id="6zjBVDcBIrsnw04U2uf7-44" value="파티원 모집 게시판 작성중" style="text;html=1;strokeColor=none;fillColor=none;align=center;verticalAlign=middle;whiteSpace=wrap;rounded=0;fontSize=12;fontStyle=1" vertex="1" parent="WIyWlLk6GJQsqaUBKTNV-1">
          <mxGeometry x="302" y="232" width="80" height="20" as="geometry" />
        </mxCell>
        <mxCell id="6zjBVDcBIrsnw04U2uf7-45" value="게시판 필요 없음" style="text;html=1;strokeColor=none;fillColor=none;align=center;verticalAlign=middle;whiteSpace=wrap;rounded=0;fontSize=12;fontStyle=1" vertex="1" parent="WIyWlLk6GJQsqaUBKTNV-1">
          <mxGeometry x="570" y="157" width="68.75" height="20" as="geometry" />
        </mxCell>
        <mxCell id="6zjBVDcBIrsnw04U2uf7-46" value="게시판 내용 수정 중" style="text;html=1;strokeColor=none;fillColor=none;align=center;verticalAlign=middle;whiteSpace=wrap;rounded=0;fontSize=12;fontStyle=1" vertex="1" parent="WIyWlLk6GJQsqaUBKTNV-1">
          <mxGeometry x="590" y="318" width="70" height="20" as="geometry" />
        </mxCell>
        <mxCell id="6zjBVDcBIrsnw04U2uf7-49" style="edgeStyle=orthogonalEdgeStyle;rounded=0;orthogonalLoop=1;jettySize=auto;html=1;exitX=0;exitY=0.5;exitDx=0;exitDy=0;fontSize=13;" edge="1" parent="WIyWlLk6GJQsqaUBKTNV-1" source="6zjBVDcBIrsnw04U2uf7-47">
          <mxGeometry relative="1" as="geometry">
            <mxPoint x="50" y="401.2352941176471" as="targetPoint" />
          </mxGeometry>
        </mxCell>
        <mxCell id="6zjBVDcBIrsnw04U2uf7-51" style="edgeStyle=orthogonalEdgeStyle;rounded=0;orthogonalLoop=1;jettySize=auto;html=1;exitX=1;exitY=0.5;exitDx=0;exitDy=0;entryX=0;entryY=0.5;entryDx=0;entryDy=0;fontSize=13;" edge="1" parent="WIyWlLk6GJQsqaUBKTNV-1" source="6zjBVDcBIrsnw04U2uf7-47" target="6zjBVDcBIrsnw04U2uf7-50">
          <mxGeometry relative="1" as="geometry" />
        </mxCell>
        <mxCell id="6zjBVDcBIrsnw04U2uf7-66" style="edgeStyle=orthogonalEdgeStyle;rounded=0;orthogonalLoop=1;jettySize=auto;html=1;exitX=0.5;exitY=1;exitDx=0;exitDy=0;entryX=0.5;entryY=0;entryDx=0;entryDy=0;fontSize=13;" edge="1" parent="WIyWlLk6GJQsqaUBKTNV-1" source="6zjBVDcBIrsnw04U2uf7-47" target="WIyWlLk6GJQsqaUBKTNV-6">
          <mxGeometry relative="1" as="geometry" />
        </mxCell>
        <mxCell id="6zjBVDcBIrsnw04U2uf7-47" value="동일 회원&lt;br&gt;추가" style="rhombus;whiteSpace=wrap;html=1;shadow=0;fontFamily=Helvetica;fontSize=12;align=center;strokeWidth=1;spacing=6;spacingTop=-4;" vertex="1" parent="WIyWlLk6GJQsqaUBKTNV-1">
          <mxGeometry x="117" y="370" width="150" height="62" as="geometry" />
        </mxCell>
        <mxCell id="6zjBVDcBIrsnw04U2uf7-50" value="리스트 확인" style="rounded=1;whiteSpace=wrap;html=1;fontSize=12;glass=0;strokeWidth=1;shadow=0;" vertex="1" parent="WIyWlLk6GJQsqaUBKTNV-1">
          <mxGeometry x="360" y="381" width="120" height="40" as="geometry" />
        </mxCell>
        <mxCell id="6zjBVDcBIrsnw04U2uf7-52" value="리스트 확인" style="rounded=1;whiteSpace=wrap;html=1;fontSize=12;glass=0;strokeWidth=1;shadow=0;" vertex="1" parent="WIyWlLk6GJQsqaUBKTNV-1">
          <mxGeometry x="370" y="572" width="120" height="40" as="geometry" />
        </mxCell>
        <mxCell id="6zjBVDcBIrsnw04U2uf7-54" value="이미 파티 참여" style="text;html=1;strokeColor=none;fillColor=none;align=center;verticalAlign=middle;whiteSpace=wrap;rounded=0;fontSize=12;fontStyle=1" vertex="1" parent="WIyWlLk6GJQsqaUBKTNV-1">
          <mxGeometry x="70" y="358" width="81.5" height="20" as="geometry" />
        </mxCell>
        <mxCell id="6zjBVDcBIrsnw04U2uf7-55" value="회원 이름 확인" style="text;html=1;strokeColor=none;fillColor=none;align=center;verticalAlign=middle;whiteSpace=wrap;rounded=0;fontSize=12;fontStyle=1" vertex="1" parent="WIyWlLk6GJQsqaUBKTNV-1">
          <mxGeometry x="260" y="358" width="88.5" height="20" as="geometry" />
        </mxCell>
        <mxCell id="6zjBVDcBIrsnw04U2uf7-64" style="edgeStyle=orthogonalEdgeStyle;rounded=0;orthogonalLoop=1;jettySize=auto;html=1;exitX=0.5;exitY=1;exitDx=0;exitDy=0;fontSize=13;" edge="1" parent="WIyWlLk6GJQsqaUBKTNV-1" source="6zjBVDcBIrsnw04U2uf7-61" target="6zjBVDcBIrsnw04U2uf7-63">
          <mxGeometry relative="1" as="geometry" />
        </mxCell>
        <mxCell id="6zjBVDcBIrsnw04U2uf7-65" style="edgeStyle=orthogonalEdgeStyle;rounded=0;orthogonalLoop=1;jettySize=auto;html=1;exitX=0.5;exitY=0;exitDx=0;exitDy=0;fontSize=13;" edge="1" parent="WIyWlLk6GJQsqaUBKTNV-1" source="6zjBVDcBIrsnw04U2uf7-61">
          <mxGeometry relative="1" as="geometry">
            <mxPoint x="634.9411764705883" y="350" as="targetPoint" />
          </mxGeometry>
        </mxCell>
        <mxCell id="6zjBVDcBIrsnw04U2uf7-61" value="작성자&lt;br&gt;로그인" style="rhombus;whiteSpace=wrap;html=1;shadow=0;fontFamily=Helvetica;fontSize=12;align=center;strokeWidth=1;spacing=6;spacingTop=-4;" vertex="1" parent="WIyWlLk6GJQsqaUBKTNV-1">
          <mxGeometry x="560" y="601" width="150" height="62" as="geometry" />
        </mxCell>
        <mxCell id="6zjBVDcBIrsnw04U2uf7-63" value="수정불가" style="rounded=1;whiteSpace=wrap;html=1;fontSize=12;glass=0;strokeWidth=1;shadow=0;" vertex="1" parent="WIyWlLk6GJQsqaUBKTNV-1">
          <mxGeometry x="575" y="710" width="120" height="40" as="geometry" />
        </mxCell>
        <mxCell id="6zjBVDcBIrsnw04U2uf7-67" value="작성자 권한으로 파티원 수정" style="text;html=1;strokeColor=none;fillColor=none;align=center;verticalAlign=middle;whiteSpace=wrap;rounded=0;fontSize=13;fontStyle=1" vertex="1" parent="WIyWlLk6GJQsqaUBKTNV-1">
          <mxGeometry x="330" y="669" width="98.5" height="20" as="geometry" />
        </mxCell>
      </root>
    </mxGraphModel>
  </diagram>
</mxfile>
